<svg width="77" height="88" viewBox="0 0 77 88" fill="none" xmlns="http://www.w3.org/2000/svg">
<g clip-path="url(#clip0_1495_5195)">
<path d="M16.5 0C7.39062 0 0 7.39062 0 16.5V71.5C0 80.6094 7.39062 88 16.5 88H66H71.5C74.5422 88 77 85.5422 77 82.5C77 79.4578 74.5422 77 71.5 77V66C74.5422 66 77 63.5422 77 60.5V5.5C77 2.45781 74.5422 0 71.5 0H66H16.5ZM16.5 66H60.5V77H16.5C13.4578 77 11 74.5422 11 71.5C11 68.4578 13.4578 66 16.5 66ZM22 24.75C22 23.2375 23.2375 22 24.75 22H57.75C59.2625 22 60.5 23.2375 60.5 24.75C60.5 26.2625 59.2625 27.5 57.75 27.5H24.75C23.2375 27.5 22 26.2625 22 24.75ZM24.75 33H57.75C59.2625 33 60.5 34.2375 60.5 35.75C60.5 37.2625 59.2625 38.5 57.75 38.5H24.75C23.2375 38.5 22 37.2625 22 35.75C22 34.2375 23.2375 33 24.75 33Z" fill="white"/>
</g>
<defs>
<clipPath id="clip0_1495_5195">
<rect width="77" height="88" fill="white"/>
</clipPath>
</defs>
</svg>
