<svg width="77" height="77" viewBox="0 0 77 77" fill="none" xmlns="http://www.w3.org/2000/svg">
<g clip-path="url(#clip0_1496_5197)">
<path d="M8.67754 29.0254L10.0912 31.4918C11.3395 33.6725 13.3848 35.2816 15.8061 35.9734L24.5137 38.4549C27.1004 39.1918 28.875 41.5529 28.875 44.2449V50.2455C28.875 51.8998 29.8074 53.4037 31.2812 54.1406C32.7551 54.8775 33.6875 56.3814 33.6875 58.0357V63.901C33.6875 66.2471 35.9283 67.9465 38.1842 67.2998C40.6055 66.608 42.4854 64.668 43.102 62.2166L43.523 60.5322C44.1547 57.9906 45.809 55.81 48.0799 54.5166L49.298 53.8248C51.5539 52.5465 52.9375 50.1402 52.9375 47.5535V46.3053C52.9375 44.3953 52.1705 42.5605 50.817 41.207L50.2305 40.6205C48.877 39.267 47.0422 38.5 45.1322 38.5H38.6504C36.9811 38.5 35.3268 38.0639 33.868 37.2367L28.6795 34.274C28.0328 33.898 27.5365 33.2965 27.2959 32.5896C26.8146 31.1459 27.4613 29.5818 28.8299 28.9051L29.7172 28.4539C30.7098 27.9576 31.8678 27.8674 32.9205 28.2283L36.4096 29.3863C37.6428 29.7924 38.9963 29.3262 39.7031 28.2584C40.41 27.2057 40.3348 25.807 39.5227 24.8295L37.4773 22.3781C35.9734 20.5734 35.9885 17.9416 37.5225 16.167L39.8836 13.4148C41.207 11.8658 41.4176 9.65508 40.41 7.89551L40.049 7.26387C39.5227 7.23379 39.0113 7.21875 38.485 7.21875C24.5287 7.21875 12.693 16.3775 8.67754 29.0254ZM69.7812 38.5C69.7812 32.9656 68.3375 27.7621 65.8109 23.2354L61.9609 24.7844C59.5998 25.7318 58.3816 28.3637 59.1787 30.7699L61.7203 38.3947C62.2467 39.9588 63.525 41.1469 65.1191 41.5379L69.4955 42.6357C69.676 41.2822 69.7662 39.8986 69.7662 38.5H69.7812ZM77 38.5C77 59.7652 59.7652 77 38.5 77C17.2348 77 0 59.7652 0 38.5C0 17.2348 17.2348 0 38.5 0C59.7652 0 77 17.2348 77 38.5Z" fill="white"/>
</g>
<defs>
<clipPath id="clip0_1496_5197">
<rect width="77" height="77" fill="white"/>
</clipPath>
</defs>
</svg>
