<svg width="77" height="77" viewBox="0 0 77 77" fill="none" xmlns="http://www.w3.org/2000/svg">
<path d="M38.5 12.0312C22.5436 12.0312 9.38437 23.9723 7.45937 39.4023C8.87305 38.8309 10.407 38.5 12.0312 38.5C16.0166 38.5 19.25 41.7334 19.25 45.7188V64.9688C19.25 68.9541 16.0166 72.1875 12.0312 72.1875C5.38398 72.1875 0 66.8035 0 60.1562V57.75V50.5312V43.3125C0 22.0473 17.2348 4.8125 38.5 4.8125C59.7652 4.8125 77 22.0473 77 43.3125V50.5312V57.75V60.1562C77 66.8035 71.616 72.1875 64.9688 72.1875C60.9834 72.1875 57.75 68.9541 57.75 64.9688V45.7188C57.75 41.7334 60.9834 38.5 64.9688 38.5C66.593 38.5 68.127 38.8158 69.5406 39.4023C67.6156 23.9723 54.4564 12.0312 38.5 12.0312Z" fill="white"/>
</svg>
