<svg width="77" height="77" viewBox="0 0 77 77" fill="none" xmlns="http://www.w3.org/2000/svg">
<path d="M23.5595 57.8773L18.9127 53.2305C17.6344 51.9523 17.1833 50.1027 17.7547 48.3883C18.2059 47.05 18.8074 45.3056 19.5292 43.3055H3.61873C2.32544 43.3055 1.12238 42.6138 0.475731 41.4859C-0.170915 40.3581 -0.155876 38.9746 0.505808 37.8618L8.4009 24.5532C10.3559 21.2599 13.8899 19.2449 17.7096 19.2449H30.0861C30.447 18.6433 30.8079 18.0869 31.1689 17.5456C43.4852 -0.620229 61.8319 -1.22174 72.7798 0.793336C74.5242 1.10913 75.8777 2.47758 76.2085 4.22198C78.2236 15.1846 77.6071 33.5158 59.4559 45.8319C58.9295 46.1928 58.3581 46.5537 57.7565 46.9146V59.2908C57.7565 63.1105 55.7414 66.6594 52.448 68.5993L39.1391 76.4942C38.0263 77.1559 36.6428 77.1709 35.5149 76.5243C34.3871 75.8776 33.6953 74.6897 33.6953 73.3814V57.2607C31.5749 57.9976 29.7252 58.5991 28.3266 59.0502C26.6423 59.5916 24.8077 59.1254 23.5445 57.8773H23.5595ZM57.7565 25.26C61.08 25.26 63.7718 22.5682 63.7718 19.2449C63.7718 15.9215 61.08 13.2297 57.7565 13.2297C54.4331 13.2297 51.7412 15.9215 51.7412 19.2449C51.7412 22.5682 54.4331 25.26 57.7565 25.26Z" fill="white"/>
</svg>
