<svg width="77" height="69" viewBox="0 0 77 69" fill="none" xmlns="http://www.w3.org/2000/svg">
<g clip-path="url(#clip0_1496_5199)">
<path d="M42.3634 2.40625C41.6549 0.935764 40.1576 0 38.5134 0C36.8691 0 35.3852 0.935764 34.6634 2.40625L26.0677 20.0922L6.87118 22.9262C5.26701 23.1668 3.93021 24.2898 3.43559 25.8271C2.94097 27.3644 3.34201 29.0622 4.49167 30.1984L18.4212 43.9809L15.1326 63.4582C14.8653 65.0623 15.5337 66.6932 16.8571 67.6424C18.1806 68.5915 19.9318 68.7118 21.3755 67.9498L38.5267 58.7927L55.678 67.9498C57.1217 68.7118 58.8729 68.6049 60.1964 67.6424C61.5198 66.6799 62.1882 65.0623 61.9208 63.4582L58.6189 43.9809L72.5484 30.1984C73.6981 29.0622 74.1125 27.3644 73.6045 25.8271C73.0965 24.2898 71.7731 23.1668 70.1689 22.9262L50.959 20.0922L42.3634 2.40625Z" fill="white"/>
</g>
<defs>
<clipPath id="clip0_1496_5199">
<rect width="77" height="68.4444" fill="white"/>
</clipPath>
</defs>
</svg>
