<svg width="77" height="69" viewBox="0 0 77 69" fill="none" xmlns="http://www.w3.org/2000/svg">
<path d="M73.4782 16.5876C72.6386 13.426 70.1647 10.9361 67.0236 10.0911C61.3301 8.55566 38.5 8.55566 38.5 8.55566C38.5 8.55566 15.6701 8.55566 9.97647 10.0911C6.83538 10.9362 4.36149 13.426 3.52184 16.5876C1.99628 22.3181 1.99628 34.2742 1.99628 34.2742C1.99628 34.2742 1.99628 46.2303 3.52184 51.9608C4.36149 55.1223 6.83538 57.5085 9.97647 58.3535C15.6701 59.889 38.5 59.889 38.5 59.889C38.5 59.889 61.33 59.889 67.0236 58.3535C70.1647 57.5085 72.6386 55.1223 73.4782 51.9608C75.0038 46.2303 75.0038 34.2742 75.0038 34.2742C75.0038 34.2742 75.0038 22.3181 73.4782 16.5876V16.5876ZM31.0333 45.1295V23.4189L50.1147 34.2745L31.0333 45.1295V45.1295Z" fill="white"/>
</svg>
