<svg width="40" height="48" viewBox="0 0 40 48" fill="none" xmlns="http://www.w3.org/2000/svg">
<path d="M33.0981 8.58035C30.9019 3.52677 25.8661 0 20 0C14.1339 0 9.09821 3.52677 6.90179 8.58035C5.43749 8.70536 4.28571 9.92856 4.28571 11.4286V17.1429C4.28571 18.6429 5.43749 19.8661 6.90179 19.9911C9.09821 25.0446 14.1339 28.5715 20 28.5715C25.8661 28.5715 30.9019 25.0446 33.0981 19.9911C34.5624 19.8661 35.7144 18.6429 35.7144 17.1429V11.4286C35.7144 9.92856 34.5624 8.70536 33.0981 8.58035ZM30 12.8571V14.2857C30 19.0179 26.1607 22.8571 21.4286 22.8571H18.5714C13.8393 22.8571 10 19.0179 10 14.2857V12.8571C10 10.4911 11.9197 8.57144 14.2857 8.57144H25.7143C28.0803 8.57144 30 10.4911 30 12.8571ZM16.9018 14.5268L16.3661 12.6339C16.2857 12.3393 16.0179 12.1429 15.7143 12.1429C15.4107 12.1429 15.1429 12.3393 15.0625 12.6339L14.5268 14.5268L12.6339 15.0625C12.3393 15.1429 12.1429 15.4107 12.1429 15.7143C12.1429 16.0179 12.3393 16.2857 12.6339 16.3661L14.5268 16.9018L15.0625 18.7946C15.1429 19.0893 15.4107 19.2857 15.7143 19.2857C16.0179 19.2857 16.2857 19.0893 16.3661 18.7946L16.9018 16.9018L18.7946 16.3661C19.0893 16.2857 19.2857 16.0179 19.2857 15.7143C19.2857 15.4107 19.0893 15.1429 18.7946 15.0625L16.9018 14.5268ZM10.0625 28.2589C4.16965 30.5893 0 36.3392 0 43.0624C0 44.5267 1.1875 45.7144 2.65179 45.7144H11.4286V40C11.4286 38.4197 12.7054 37.1429 14.2857 37.1429H25.7143C27.2947 37.1429 28.5715 38.4197 28.5715 40V45.7144H37.3483C38.8125 45.7144 40 44.5267 40 43.0624C40 36.3392 35.8304 30.5893 29.9376 28.2589C27.1339 30.2501 23.7054 31.4285 20 31.4285C16.2946 31.4285 12.8661 30.2501 10.0625 28.2589ZM15.7143 40C14.9286 40 14.2857 40.6429 14.2857 41.4285V45.7144H17.1429V41.4285C17.1429 40.6429 16.5 40 15.7143 40ZM24.2857 42.8571C25.0714 42.8571 25.7143 42.2144 25.7143 41.4285C25.7143 40.6429 25.0714 40 24.2857 40C23.5 40 22.8571 40.6429 22.8571 41.4285C22.8571 42.2144 23.5 42.8571 24.2857 42.8571Z" fill="url(#paint0_linear_1521_5143)"/>
<defs>
<linearGradient id="paint0_linear_1521_5143" x1="20" y1="0" x2="20" y2="45.7144" gradientUnits="userSpaceOnUse">
<stop stop-color="#060A45"/>
<stop offset="1" stop-color="#571764"/>
</linearGradient>
</defs>
</svg>
