<svg width="15" height="18" viewBox="0 0 15 18" fill="none" xmlns="http://www.w3.org/2000/svg">
<path d="M12.4118 3.21763C11.5882 1.32254 9.69978 0 7.5 0C5.30022 0 3.41183 1.32254 2.58817 3.21763C2.03906 3.26451 1.60714 3.72321 1.60714 4.28571V6.42857C1.60714 6.99107 2.03906 7.44978 2.58817 7.49665C3.41183 9.39174 5.30022 10.7143 7.5 10.7143C9.69978 10.7143 11.5882 9.39174 12.4118 7.49665C12.9609 7.44978 13.3929 6.99107 13.3929 6.42857V4.28571C13.3929 3.72321 12.9609 3.26451 12.4118 3.21763ZM11.25 4.82143V5.35714C11.25 7.1317 9.81027 8.57143 8.03571 8.57143H6.96429C5.18973 8.57143 3.75 7.1317 3.75 5.35714V4.82143C3.75 3.93415 4.46987 3.21429 5.35714 3.21429H9.64286C10.5301 3.21429 11.25 3.93415 11.25 4.82143ZM6.33817 5.44754L6.13728 4.73772C6.10714 4.62723 6.0067 4.55357 5.89286 4.55357C5.77902 4.55357 5.67857 4.62723 5.64844 4.73772L5.44754 5.44754L4.73772 5.64844C4.62723 5.67857 4.55357 5.77902 4.55357 5.89286C4.55357 6.0067 4.62723 6.10714 4.73772 6.13728L5.44754 6.33817L5.64844 7.04799C5.67857 7.15848 5.77902 7.23214 5.89286 7.23214C6.0067 7.23214 6.10714 7.15848 6.13728 7.04799L6.33817 6.33817L7.04799 6.13728C7.15848 6.10714 7.23214 6.0067 7.23214 5.89286C7.23214 5.77902 7.15848 5.67857 7.04799 5.64844L6.33817 5.44754ZM3.77344 10.5971C1.56362 11.471 0 13.6272 0 16.1484C0 16.6975 0.445312 17.1429 0.99442 17.1429H4.28571V15C4.28571 14.4074 4.76451 13.9286 5.35714 13.9286H9.64286C10.2355 13.9286 10.7143 14.4074 10.7143 15V17.1429H14.0056C14.5547 17.1429 15 16.6975 15 16.1484C15 13.6272 13.4364 11.471 11.2266 10.5971C10.1752 11.3438 8.88951 11.7857 7.5 11.7857C6.11049 11.7857 4.82478 11.3438 3.77344 10.5971ZM5.89286 15C5.59821 15 5.35714 15.2411 5.35714 15.5357V17.1429H6.42857V15.5357C6.42857 15.2411 6.1875 15 5.89286 15ZM9.10714 16.0714C9.40178 16.0714 9.64286 15.8304 9.64286 15.5357C9.64286 15.2411 9.40178 15 9.10714 15C8.8125 15 8.57143 15.2411 8.57143 15.5357C8.57143 15.8304 8.8125 16.0714 9.10714 16.0714Z" fill="url(#paint0_linear_205_86)"/>
<defs>
<linearGradient id="paint0_linear_205_86" x1="7.5" y1="0" x2="7.5" y2="17.1429" gradientUnits="userSpaceOnUse">
<stop offset="0.21875" stop-color="#64166B"/>
<stop offset="0.510417" stop-color="#5D369D"/>
<stop offset="0.802083" stop-color="#1B58B4"/>
</linearGradient>
</defs>
</svg>
