<svg width="77" height="69" viewBox="0 0 77 69" fill="none" xmlns="http://www.w3.org/2000/svg">
<path d="M31.0139 31.7091C35.2649 29.6772 37.484 26.6025 37.484 21.8167C37.484 12.3789 30.4524 10.0796 22.338 10.0796H0V57.456H22.9663C31.5753 57.456 39.663 53.3252 39.663 43.7002C39.663 37.7515 36.8424 33.3534 31.0139 31.7091V31.7091ZM10.4137 18.1673H20.1858C23.9422 18.1673 27.3243 19.2233 27.3243 23.5813C27.3243 27.6051 24.6908 29.2226 20.9745 29.2226H10.4137V18.1673V18.1673ZM21.5493 49.4084H10.4137V36.3612H21.7632C26.3484 36.3612 29.2493 38.2728 29.2493 43.1254C29.2493 47.9112 25.787 49.4084 21.5493 49.4084V49.4084ZM69.4738 17.2315H50.2639V12.566H69.4738V17.2315V17.2315ZM77 40.7994C77 30.653 71.0646 22.191 60.3033 22.191C49.8495 22.191 42.751 30.0515 42.751 40.3449C42.751 51.0259 49.4752 58.3516 60.3033 58.3516C68.4979 58.3516 73.805 54.6621 76.3583 46.815H68.0434C67.1477 49.7426 63.4582 51.2933 60.5974 51.2933C55.0764 51.2933 52.1755 48.0582 52.1755 42.564H76.9198C76.9599 42.0025 77 41.4009 77 40.7994ZM52.1889 36.6285C52.4964 32.1235 55.4908 29.3029 60.0092 29.3029C64.7415 29.3029 67.121 32.0834 67.522 36.6285H52.1889Z" fill="white"/>
</svg>
