<svg width="49" height="49" viewBox="0 0 49 49" fill="none" xmlns="http://www.w3.org/2000/svg">
<path d="M24.5 49C38.031 49 49 38.031 49 24.5C49 10.969 38.031 0 24.5 0C10.969 0 0 10.969 0 24.5C0 38.031 10.969 49 24.5 49Z" fill="url(#paint0_linear_1515_4000)"/>
<path fill-rule="evenodd" clip-rule="evenodd" d="M18.5942 25.4455H14.2033V30.0785H18.5253C20.0106 30.0785 21.1877 29.6058 21.1877 27.8544C21.1887 26.1365 20.1934 25.4455 18.5942 25.4455ZM18.0305 18.7023H14.2024V22.6434H18.3176C19.6211 22.6434 20.6011 22.0557 20.6011 20.6384C20.6011 19.0248 19.3675 18.7023 18.0305 18.7023V18.7023ZM25.0379 27.9233C25.0379 31.3476 22.0988 32.8109 19.0325 32.8109H10.78V15.8551H18.7913C22.029 15.8551 24.2301 16.9969 24.2301 20.1426C24.2301 21.7916 23.3899 22.9439 21.9151 23.6578C23.988 24.2454 25.0379 25.8264 25.0379 27.9233ZM29.0718 16.9969H35.8944V19.267H29.0718V16.9969ZM32.1257 22.8061C29.9819 22.8061 29.3589 24.0052 29.3129 24.9383H34.8226C34.5125 23.2444 33.7746 22.8051 32.1257 22.8051V22.8061ZM29.3139 27.1404C29.4096 29.2612 30.4556 30.6212 32.3343 30.6212C33.6933 30.6212 34.9393 29.5139 35.1585 28.754H38.132C37.1864 31.6366 35.0073 33.1458 32.2185 33.1458C28.3349 33.1458 25.8906 30.5054 25.8906 26.7251C25.8906 23.0711 28.4832 20.2814 32.2185 20.2814C36.4151 20.2814 38.4392 23.3831 38.2009 27.1404H29.3139Z" fill="white"/>
<defs>
<linearGradient id="paint0_linear_1515_4000" x1="24.5" y1="0" x2="24.5" y2="49" gradientUnits="userSpaceOnUse">
<stop stop-color="#060A45"/>
<stop offset="1" stop-color="#571764"/>
</linearGradient>
</defs>
</svg>
