<svg width="77" height="62" viewBox="0 0 77 62" fill="none" xmlns="http://www.w3.org/2000/svg">
<path d="M63.1076 8.40207C63.0879 8.36397 63.0554 8.33411 63.0157 8.31785C58.429 6.21342 53.5887 4.7128 48.616 3.85353C48.5708 3.84514 48.5241 3.85119 48.4826 3.87085C48.441 3.89051 48.4068 3.92276 48.3846 3.96302C47.7255 5.15927 47.1272 6.38802 46.5919 7.64458C41.2316 6.83089 35.7792 6.83089 30.4188 7.64458C29.88 6.38483 29.2721 5.15578 28.5979 3.96302C28.5748 3.92363 28.5403 3.89212 28.499 3.8726C28.4577 3.85307 28.4115 3.84643 28.3664 3.85353C23.3931 4.71099 18.5525 6.21173 13.9664 8.31797C13.9272 8.33461 13.8941 8.36303 13.8716 8.3993C4.70034 22.0954 2.18797 35.4548 3.42046 48.6488C3.42392 48.6811 3.43386 48.7124 3.44967 48.7408C3.46548 48.7692 3.48685 48.7942 3.51249 48.8142C8.85286 52.7683 14.8261 55.7865 21.1774 57.7401C21.2221 57.7535 21.2699 57.7529 21.3142 57.7383C21.3586 57.7238 21.3975 57.696 21.4256 57.6587C22.7897 55.8026 23.9984 53.8372 25.0394 51.7824C25.0537 51.7542 25.0619 51.7233 25.0634 51.6917C25.0649 51.6602 25.0596 51.6286 25.0481 51.5992C25.0365 51.5698 25.0188 51.5431 24.9962 51.5211C24.9735 51.499 24.9465 51.4819 24.9168 51.4711C23.0108 50.7418 21.1655 49.8626 19.3983 48.8419C19.3662 48.823 19.3393 48.7965 19.3198 48.7647C19.3004 48.733 19.2891 48.6969 19.2869 48.6598C19.2847 48.6226 19.2916 48.5854 19.3072 48.5516C19.3228 48.5178 19.3464 48.4883 19.3761 48.4658C19.7469 48.188 20.1179 47.899 20.472 47.6071C20.5034 47.5812 20.5415 47.5646 20.5819 47.5591C20.6223 47.5537 20.6634 47.5596 20.7006 47.5763C32.2781 52.8601 44.8124 52.8601 56.2529 47.5763C56.2902 47.5586 56.3317 47.5518 56.3727 47.5568C56.4137 47.5617 56.4524 47.5782 56.4844 47.6043C56.8386 47.8962 57.2095 48.188 57.5831 48.4658C57.6129 48.4881 57.6368 48.5174 57.6526 48.5511C57.6684 48.5848 57.6756 48.6218 57.6737 48.659C57.6718 48.6962 57.6607 48.7323 57.6415 48.7642C57.6223 48.7961 57.5956 48.8228 57.5636 48.8419C55.8004 49.8712 53.9535 50.7498 52.0425 51.4683C52.0128 51.4796 51.9858 51.497 51.9634 51.5194C51.9409 51.5419 51.9234 51.5688 51.912 51.5984C51.9007 51.6281 51.8957 51.6598 51.8974 51.6915C51.8992 51.7232 51.9076 51.7542 51.9222 51.7824C52.9806 53.8258 54.1875 55.7887 55.5332 57.6555C55.5605 57.6938 55.5992 57.7225 55.6437 57.7376C55.6883 57.7527 55.7364 57.7535 55.7814 57.7397C62.1441 55.7928 68.1278 52.7743 73.4748 48.8142C73.5009 48.7952 73.5225 48.7709 73.5384 48.7428C73.5543 48.7147 73.564 48.6836 73.5669 48.6515C75.0424 33.398 71.0966 20.1481 63.1076 8.40207ZM26.7684 40.615C23.2827 40.615 20.4106 37.4163 20.4106 33.4878C20.4106 29.5594 23.227 26.3604 26.7684 26.3604C30.3375 26.3604 33.1818 29.5872 33.1261 33.4876C33.1261 37.4163 30.3096 40.615 26.7684 40.615ZM50.2751 40.615C46.7895 40.615 43.9174 37.4163 43.9174 33.4878C43.9174 29.5594 46.7338 26.3604 50.2751 26.3604C53.8444 26.3604 56.6886 29.5872 56.6329 33.4876C56.6329 37.4163 53.8444 40.615 50.2751 40.615Z" fill="white"/>
</svg>
