<svg width="40" height="32" viewBox="0 0 40 32" fill="none" xmlns="http://www.w3.org/2000/svg">
<g clip-path="url(#clip0_1521_5156)">
<path d="M22 7.78125L18.7563 6.96875C18.35 6.86875 18.05 6.525 18.0063 6.10625C17.9625 5.6875 18.1812 5.2875 18.55 5.1L21.1 3.825L18.4 1.8C18.0562 1.54375 17.9125 1.09375 18.05 0.68125C18.1875 0.26875 18.5687 0 19 0H26H28H29C30.8875 0 32.6687 0.8875 33.8 2.4L37.4 7.2C37.7875 7.71875 38 8.35 38 9C38 10.6562 36.6562 12 35 12H33.6562C32.5938 12 31.575 11.5813 30.825 10.8313L30 10H28V11.3438C28 12.8937 28.8 14.3375 30.1125 15.1625L36.775 19.325C38.7813 20.5813 40 22.775 40 25.1437C40 28.9312 36.9313 32 33.1375 32H31H27H2.01875C1.8125 32 1.60625 31.975 1.41875 31.9125C0.84375 31.7375 0.375 31.3125 0.15 30.7563C0.0625001 30.5438 0.0125001 30.325 1.13854e-07 30.0875C-0.0124999 29.8562 0.0187501 29.6313 0.0812501 29.4188C0.25625 28.8438 0.68125 28.375 1.24375 28.1437C1.43125 28.0687 1.63125 28.0188 1.8375 28.0063L27.0812 25.75C27.6 25.7063 28 25.2687 28 24.7437C28 24.475 27.8937 24.2188 27.7062 24.0312L24.9312 21.2563C23.0562 19.3813 22 16.8375 22 14.1875V11.3438V7.78125V7.78125ZM32 4.51875C32 4.5125 32 4.50625 32 4.5C32 4.49375 32 4.4875 32 4.48125V4.51875ZM31.9188 4.98125L29.0187 4.25625C29.0062 4.3375 29 4.41875 29 4.5C29 5.33125 29.6687 6 30.5 6C31.1625 6 31.7188 5.575 31.9188 4.98125ZM8.18125 7.28125C9.2 6.375 10.7062 6.26875 11.8375 7.025L20 12.4625V14.1875C20 16.2375 20.525 18.2375 21.5 20H7C6.58125 20 6.20625 19.7375 6.0625 19.35C5.91875 18.9625 6.03125 18.5187 6.35 18.2437L10.6875 14.5188L1.15 15.9875C0.7125 16.0563 0.28125 15.825 0.0937501 15.425C-0.0937499 15.025 1.19209e-07 14.5437 0.33125 14.25L8.18125 7.28125Z" fill="url(#paint0_linear_1521_5156)"/>
</g>
<defs>
<linearGradient id="paint0_linear_1521_5156" x1="19.9986" y1="0" x2="19.9986" y2="32" gradientUnits="userSpaceOnUse">
<stop stop-color="#060A45"/>
<stop offset="1" stop-color="#571764"/>
</linearGradient>
<clipPath id="clip0_1521_5156">
<rect width="40" height="32" fill="white"/>
</clipPath>
</defs>
</svg>
