<svg width="40" height="36" viewBox="0 0 40 36" fill="none" xmlns="http://www.w3.org/2000/svg">
<path d="M40 3C40 11.875 33.3907 19.2109 24.8281 20.3438C24.2734 16.1719 22.4375 12.4062 19.7266 9.46093C22.7187 4.1172 28.4376 0.5 35 0.5H37.5C38.8829 0.5 40 1.6172 40 3ZM0 8C0 6.6172 1.11719 5.5 2.5 5.5H5C14.6641 5.5 22.5 13.3359 22.5 23V25.5V33C22.5 34.3829 21.3828 35.5 20 35.5C18.6172 35.5 17.5 34.3829 17.5 33V25.5C7.83595 25.5 0 17.6641 0 8Z" fill="url(#paint0_linear_1521_5152)"/>
<defs>
<linearGradient id="paint0_linear_1521_5152" x1="20" y1="0.5" x2="20" y2="35.5" gradientUnits="userSpaceOnUse">
<stop stop-color="#060A45"/>
<stop offset="1" stop-color="#571764"/>
</linearGradient>
</defs>
</svg>
