<svg width="58" height="77" viewBox="0 0 58 77" fill="none" xmlns="http://www.w3.org/2000/svg">
<path d="M2.10547 14.4063C2.10547 6.44991 8.55539 0 16.5118 0H41.2313C49.1877 0 55.6376 6.44991 55.6376 14.4063C55.6376 19.4443 53.0515 23.8784 49.1343 26.4533C53.0515 29.0282 55.6376 33.4622 55.6376 38.5003C55.6376 46.4567 49.1877 52.9067 41.2313 52.9067H40.9184C37.1884 52.9067 33.7895 51.4891 31.231 49.1633V62.4372C31.231 70.4997 24.6125 77 16.5894 77C8.65289 77 2.10547 70.5697 2.10547 62.5936C2.10547 57.5558 4.69136 53.122 8.60824 50.547C4.69136 47.9721 2.10547 43.5381 2.10547 38.5003C2.10547 33.4622 4.69159 29.0282 8.60874 26.4533C4.69159 23.8784 2.10547 19.4443 2.10547 14.4063ZM26.5121 28.8129H16.5118C11.1616 28.8129 6.8244 33.1502 6.8244 38.5003C6.8244 43.8298 11.1281 48.1542 16.4499 48.1876C16.4705 48.1874 16.4911 48.1874 16.5118 48.1874H26.5121V28.8129ZM31.231 38.5003C31.231 43.8504 35.5681 48.1877 40.9184 48.1877H41.2313C46.5816 48.1877 50.9187 43.8504 50.9187 38.5003C50.9187 33.1502 46.5816 28.8129 41.2313 28.8129H40.9184C35.5681 28.8129 31.231 33.1502 31.231 38.5003ZM16.5118 52.9067C16.4911 52.9067 16.4705 52.9065 16.4499 52.9065C11.1281 52.9398 6.8244 57.2641 6.8244 62.5936C6.8244 67.9242 11.2195 72.281 16.5894 72.281C22.0459 72.281 26.5121 67.8541 26.5121 62.4372V52.9067H16.5118ZM16.5118 4.71893C11.1616 4.71893 6.8244 9.05612 6.8244 14.4063C6.8244 19.7565 11.1616 24.0936 16.5118 24.0936H26.5121V4.71893H16.5118ZM31.231 24.0936H41.2313C46.5816 24.0936 50.9187 19.7565 50.9187 14.4063C50.9187 9.05612 46.5816 4.71893 41.2313 4.71893H31.231V24.0936Z" fill="white"/>
</svg>
