<svg width="77" height="77" viewBox="0 0 77 77" fill="none" xmlns="http://www.w3.org/2000/svg">
<path d="M0 14.4375C0 9.12871 4.31621 4.8125 9.625 4.8125H67.375C72.6838 4.8125 77 9.12871 77 14.4375V62.5625C77 67.8713 72.6838 72.1875 67.375 72.1875H9.625C4.31621 72.1875 0 67.8713 0 62.5625V14.4375ZM7.21875 55.3438V60.1562C7.21875 61.4797 8.30156 62.5625 9.625 62.5625H14.4375C15.7609 62.5625 16.8438 61.4797 16.8438 60.1562V55.3438C16.8438 54.0203 15.7609 52.9375 14.4375 52.9375H9.625C8.30156 52.9375 7.21875 54.0203 7.21875 55.3438ZM62.5625 52.9375C61.2391 52.9375 60.1562 54.0203 60.1562 55.3438V60.1562C60.1562 61.4797 61.2391 62.5625 62.5625 62.5625H67.375C68.6984 62.5625 69.7812 61.4797 69.7812 60.1562V55.3438C69.7812 54.0203 68.6984 52.9375 67.375 52.9375H62.5625ZM7.21875 36.0938V40.9062C7.21875 42.2297 8.30156 43.3125 9.625 43.3125H14.4375C15.7609 43.3125 16.8438 42.2297 16.8438 40.9062V36.0938C16.8438 34.7703 15.7609 33.6875 14.4375 33.6875H9.625C8.30156 33.6875 7.21875 34.7703 7.21875 36.0938ZM62.5625 33.6875C61.2391 33.6875 60.1562 34.7703 60.1562 36.0938V40.9062C60.1562 42.2297 61.2391 43.3125 62.5625 43.3125H67.375C68.6984 43.3125 69.7812 42.2297 69.7812 40.9062V36.0938C69.7812 34.7703 68.6984 33.6875 67.375 33.6875H62.5625ZM7.21875 16.8438V21.6562C7.21875 22.9797 8.30156 24.0625 9.625 24.0625H14.4375C15.7609 24.0625 16.8438 22.9797 16.8438 21.6562V16.8438C16.8438 15.5203 15.7609 14.4375 14.4375 14.4375H9.625C8.30156 14.4375 7.21875 15.5203 7.21875 16.8438ZM62.5625 14.4375C61.2391 14.4375 60.1562 15.5203 60.1562 16.8438V21.6562C60.1562 22.9797 61.2391 24.0625 62.5625 24.0625H67.375C68.6984 24.0625 69.7812 22.9797 69.7812 21.6562V16.8438C69.7812 15.5203 68.6984 14.4375 67.375 14.4375H62.5625ZM24.0625 19.25V28.875C24.0625 31.5369 26.2131 33.6875 28.875 33.6875H48.125C50.7869 33.6875 52.9375 31.5369 52.9375 28.875V19.25C52.9375 16.5881 50.7869 14.4375 48.125 14.4375H28.875C26.2131 14.4375 24.0625 16.5881 24.0625 19.25ZM28.875 43.3125C26.2131 43.3125 24.0625 45.4631 24.0625 48.125V57.75C24.0625 60.4119 26.2131 62.5625 28.875 62.5625H48.125C50.7869 62.5625 52.9375 60.4119 52.9375 57.75V48.125C52.9375 45.4631 50.7869 43.3125 48.125 43.3125H28.875Z" fill="white"/>
</svg>
