<svg width="77" height="80" viewBox="0 0 77 80" fill="none" xmlns="http://www.w3.org/2000/svg">
<path d="M25.7546 61.6932C25.7546 62.0036 25.3976 62.252 24.9474 62.252C24.4351 62.2986 24.078 62.0502 24.078 61.6932C24.078 61.3827 24.4351 61.1343 24.8853 61.1343C25.351 61.0877 25.7546 61.3361 25.7546 61.6932ZM20.9266 60.9946C20.8179 61.305 21.1284 61.6621 21.5942 61.7552C21.9978 61.9105 22.4635 61.7552 22.5567 61.4448C22.6498 61.1343 22.3548 60.7772 21.8891 60.6375C21.4855 60.5288 21.0353 60.6841 20.9266 60.9946ZM27.7883 60.7307C27.3381 60.8393 27.0276 61.1343 27.0742 61.4913C27.1208 61.8018 27.5244 62.0036 27.9901 61.895C28.4403 61.7863 28.7508 61.4913 28.7042 61.1809C28.6577 60.8859 28.2385 60.6841 27.7883 60.7307ZM38.0032 1.24194C16.4712 1.24194 0 17.5889 0 39.121C0 56.3373 10.8359 71.0698 26.3135 76.2548C28.3006 76.6119 28.9992 75.3855 28.9992 74.3764C28.9992 73.4139 28.9526 68.1046 28.9526 64.8446C28.9526 64.8446 18.0857 67.1732 15.8036 60.2184C15.8036 60.2184 14.0339 55.7008 11.4879 54.5365C11.4879 54.5365 7.93286 52.0992 11.7363 52.1458C11.7363 52.1458 15.6018 52.4563 17.7286 56.151C21.1284 62.1434 26.8258 60.4202 29.0458 59.3956C29.4028 56.9117 30.4119 55.1885 31.5296 54.1639C22.8516 53.2014 14.096 51.944 14.096 37.0097C14.096 32.7405 15.2758 30.5982 17.7597 27.8659C17.356 26.8569 16.0365 22.6964 18.1633 17.325C21.4079 16.3159 28.875 21.5165 28.875 21.5165C31.9798 20.6472 35.3175 20.197 38.6242 20.197C41.9308 20.197 45.2685 20.6472 48.3734 21.5165C48.3734 21.5165 55.8405 16.3004 59.0851 17.325C61.2119 22.7119 59.8923 26.8569 59.4887 27.8659C61.9726 30.6137 63.494 32.7561 63.494 37.0097C63.494 51.9905 54.3502 53.1859 45.6722 54.1639C47.1004 55.3903 48.3113 57.719 48.3113 61.3671C48.3113 66.5988 48.2647 73.0724 48.2647 74.3454C48.2647 75.3544 48.9788 76.5809 50.9504 76.2238C66.4746 71.0698 77 56.3373 77 39.121C77 17.5889 59.5353 1.24194 38.0032 1.24194ZM15.0895 54.7849C14.8877 54.9401 14.9343 55.2972 15.1982 55.5921C15.4466 55.8405 15.8036 55.9492 16.0054 55.7474C16.2073 55.5921 16.1607 55.2351 15.8968 54.9401C15.6484 54.6917 15.2913 54.5831 15.0895 54.7849ZM13.4129 53.5274C13.3042 53.7292 13.4595 53.9776 13.77 54.1329C14.0183 54.2881 14.3288 54.2415 14.4375 54.0242C14.5462 53.8224 14.3909 53.574 14.0804 53.4188C13.77 53.3256 13.5216 53.3722 13.4129 53.5274ZM18.4427 59.054C18.1944 59.2559 18.2875 59.7216 18.6446 60.0165C19.0016 60.3736 19.4518 60.4202 19.6536 60.1718C19.8554 59.97 19.7623 59.5042 19.4518 59.2093C19.1103 58.8522 18.6446 58.8057 18.4427 59.054ZM16.673 56.772C16.4246 56.9272 16.4246 57.3309 16.673 57.6879C16.9214 58.045 17.3405 58.2002 17.5423 58.045C17.7907 57.8432 17.7907 57.4395 17.5423 57.0825C17.325 56.7254 16.9214 56.5702 16.673 56.772Z" fill="white"/>
</svg>
