<svg width="77" height="88" viewBox="0 0 77 88" fill="none" xmlns="http://www.w3.org/2000/svg">
<g clip-path="url(#clip0_1495_5179)">
<path d="M0 16.5C0 7.39062 7.39062 0 16.5 0H33V32.7766C33 35.0797 35.6641 36.3687 37.4688 34.925L46.75 27.5L56.0312 34.925C57.8359 36.3687 60.5 35.0797 60.5 32.7766V0H66H71.5C74.5422 0 77 2.45781 77 5.5V60.5C77 63.5422 74.5422 66 71.5 66V77C74.5422 77 77 79.4578 77 82.5C77 85.5422 74.5422 88 71.5 88H66H16.5C7.39062 88 0 80.6094 0 71.5V16.5ZM11 71.5C11 74.5422 13.4578 77 16.5 77H60.5V66H16.5C13.4578 66 11 68.4578 11 71.5Z" fill="white"/>
</g>
<defs>
<clipPath id="clip0_1495_5179">
<rect width="77" height="88" fill="white"/>
</clipPath>
</defs>
</svg>
