<svg width="77" height="103" viewBox="0 0 77 103" fill="none" xmlns="http://www.w3.org/2000/svg">
<g clip-path="url(#clip0_1495_5189)">
<path d="M43.2523 100.1C53.5391 87.2266 77 56.0255 77 38.5C77 17.2448 59.7552 0 38.5 0C17.2448 0 0 17.2448 0 38.5C0 56.0255 23.4609 87.2266 33.7477 100.1C36.2141 103.168 40.7859 103.168 43.2523 100.1V100.1ZM38.5 51.3333C31.4216 51.3333 25.6667 45.5784 25.6667 38.5C25.6667 31.4216 31.4216 25.6667 38.5 25.6667C45.5784 25.6667 51.3333 31.4216 51.3333 38.5C51.3333 45.5784 45.5784 51.3333 38.5 51.3333Z" fill="white"/>
</g>
<defs>
<clipPath id="clip0_1495_5189">
<rect width="77" height="102.667" fill="white"/>
</clipPath>
</defs>
</svg>
