<svg width="97" height="86" viewBox="0 0 97 86" fill="none" xmlns="http://www.w3.org/2000/svg">
<path d="M17 79C17 80.5913 16.3679 82.1174 15.2426 83.2426C14.1174 84.3679 12.5913 85 11 85C9.4087 85 7.88258 84.3679 6.75736 83.2426C5.63214 82.1174 5 80.5913 5 79L11 79H17Z" fill="#D3E4FD"/>
<path d="M80.0754 78.9995C80.0655 79.7874 80.2109 80.5695 80.5032 81.3012C80.7956 82.0329 81.2292 82.6998 81.7793 83.2639C82.3294 83.828 82.9852 84.2783 83.7094 84.5889C84.4335 84.8996 85.2117 85.0646 85.9995 85.0745C86.7874 85.0844 87.5695 84.939 88.3012 84.6467C89.0329 84.3543 89.6998 83.9207 90.2639 83.3706C90.828 82.8205 91.2783 82.1647 91.5889 81.4406C91.8996 80.7164 92.0646 79.9382 92.0745 79.1504L86.0749 79.075L80.0754 78.9995Z" fill="#D3E4FD"/>
<rect y="8" width="97" height="70" rx="6" fill="#D3E4FD"/>
<rect x="32" width="32" height="6" rx="2" fill="#D3E4FD"/>
</svg>
