<svg width="77" height="88" viewBox="0 0 77 88" fill="none" xmlns="http://www.w3.org/2000/svg">
<g clip-path="url(#clip0_1495_5187)">
<path d="M38.5172 24.2344C27.586 24.2344 18.7688 33.0516 18.7688 43.9829C18.7688 54.9141 27.586 63.7313 38.5172 63.7313C49.4484 63.7313 58.2656 54.9141 58.2656 43.9829C58.2656 33.0516 49.4484 24.2344 38.5172 24.2344ZM38.5172 56.8219C31.4531 56.8219 25.6781 51.0641 25.6781 43.9829C25.6781 36.9016 31.4359 31.1438 38.5172 31.1438C45.5984 31.1438 51.3563 36.9016 51.3563 43.9829C51.3563 51.0641 45.5813 56.8219 38.5172 56.8219ZM63.6797 23.4266C63.6797 25.9875 61.6172 28.0329 59.0735 28.0329C56.5125 28.0329 54.4672 25.9704 54.4672 23.4266C54.4672 20.8829 56.5297 18.8204 59.0735 18.8204C61.6172 18.8204 63.6797 20.8829 63.6797 23.4266ZM76.7594 28.1016C76.4672 21.9313 75.0578 16.4657 70.5375 11.9625C66.0344 7.45942 60.5688 6.05005 54.3985 5.74067C48.0391 5.37974 28.9781 5.37974 22.6188 5.74067C16.4656 6.03286 11 7.44224 6.4797 11.9454C1.95939 16.4485 0.5672 21.9141 0.257825 28.0844C-0.103113 34.4438 -0.103113 53.5047 0.257825 59.8641C0.550012 66.0344 1.95939 71.5 6.4797 76.0032C11 80.5063 16.4485 81.9157 22.6188 82.225C28.9781 82.586 48.0391 82.586 54.3985 82.225C60.5688 81.9329 66.0344 80.5235 70.5375 76.0032C75.0406 71.5 76.45 66.0344 76.7594 59.8641C77.1203 53.5047 77.1203 34.461 76.7594 28.1016ZM68.5438 66.6875C67.2031 70.0563 64.6078 72.6516 61.2219 74.0094C56.1516 76.0204 44.1203 75.5563 38.5172 75.5563C32.9141 75.5563 20.8656 76.0032 15.8125 74.0094C12.4438 72.6688 9.84845 70.0735 8.49064 66.6875C6.4797 61.6172 6.94376 49.586 6.94376 43.9829C6.94376 38.3797 6.49689 26.3313 8.49064 21.2782C9.83126 17.9094 12.4266 15.3141 15.8125 13.9563C20.8828 11.9454 32.9141 12.4094 38.5172 12.4094C44.1203 12.4094 56.1688 11.9625 61.2219 13.9563C64.5906 15.2969 67.186 17.8922 68.5438 21.2782C70.5547 26.3485 70.0906 38.3797 70.0906 43.9829C70.0906 49.586 70.5547 61.6344 68.5438 66.6875Z" fill="url(#paint0_linear_1495_5187)"/>
</g>
<defs>
<linearGradient id="paint0_linear_1495_5187" x1="38.5086" y1="5.46997" x2="38.5086" y2="82.4958" gradientUnits="userSpaceOnUse">
<stop stop-color="#060A45"/>
<stop offset="1" stop-color="#571764"/>
</linearGradient>
<clipPath id="clip0_1495_5187">
<rect width="77" height="88" fill="white"/>
</clipPath>
</defs>
</svg>
