<svg width="40" height="38" viewBox="0 0 40 38" fill="none" xmlns="http://www.w3.org/2000/svg">
<path d="M20.2222 26.9722C22.3889 25.6666 24.7153 24.4444 27.2429 24.4444H31.1112C31.4307 24.4444 31.7429 24.4305 32.0555 24.3958L37.9792 32.861C38.2571 33.257 38.764 33.4306 39.2221 33.2847C39.6805 33.1389 40 32.7082 40 32.2221V15.5555C40 10.6458 36.0208 6.66662 31.1112 6.66662H27.2429C24.7153 6.66662 22.3889 5.4444 20.2222 4.13883C18.2153 2.92355 15.8542 2.22217 13.3333 2.22217C5.97221 2.22217 0 8.1944 0 15.5555C0 20.493 2.68056 24.7986 6.66667 27.1042V31.6666C6.66667 32.5903 7.40973 33.3333 8.33333 33.3333C9.25693 33.3333 10 32.5903 10 31.6666V28.4722C11.0625 28.7429 12.1806 28.8887 13.3333 28.8887C13.7083 28.8887 14.0764 28.8749 14.4445 28.8402V31.6666C14.4445 32.5903 15.1875 33.3333 16.1111 33.3333C17.0347 33.3333 17.7778 32.5903 17.7778 31.6666V28.1319C18.6389 27.8263 19.4583 27.4375 20.2222 26.9722ZM31.1112 17.2222C30.1875 17.2222 29.4445 16.4791 29.4445 15.5555C29.4445 14.6319 30.1875 13.8888 31.1112 13.8888C32.0347 13.8888 32.7779 14.6319 32.7779 15.5555C32.7779 16.4791 32.0347 17.2222 31.1112 17.2222Z" fill="url(#paint0_linear_1521_5149)"/>
<defs>
<linearGradient id="paint0_linear_1521_5149" x1="20" y1="2.22217" x2="20" y2="33.3359" gradientUnits="userSpaceOnUse">
<stop stop-color="#060A45"/>
<stop offset="1" stop-color="#571764"/>
</linearGradient>
</defs>
</svg>
