<svg width="15" height="14" viewBox="0 0 15 14" fill="none" xmlns="http://www.w3.org/2000/svg">
<path d="M7.58333 10.1146C8.39583 9.625 9.26823 9.16667 10.2161 9.16667H11.6667C11.7865 9.16667 11.9036 9.16146 12.0208 9.14844L14.2422 12.3229C14.3464 12.4714 14.5365 12.5365 14.7083 12.4818C14.8802 12.4271 15 12.2656 15 12.0833V5.83333C15 3.99219 13.5078 2.5 11.6667 2.5H10.2161C9.26823 2.5 8.39583 2.04167 7.58333 1.55208C6.83073 1.09635 5.94531 0.833332 5 0.833332C2.23958 0.833332 0 3.07292 0 5.83333C0 7.6849 1.00521 9.29948 2.5 10.1641V11.875C2.5 12.2214 2.77865 12.5 3.125 12.5C3.47135 12.5 3.75 12.2214 3.75 11.875V10.6771C4.14844 10.7786 4.56771 10.8333 5 10.8333C5.14062 10.8333 5.27865 10.8281 5.41667 10.8151V11.875C5.41667 12.2214 5.69531 12.5 6.04167 12.5C6.38802 12.5 6.66667 12.2214 6.66667 11.875V10.5495C6.98958 10.4349 7.29688 10.2891 7.58333 10.1146ZM11.6667 6.45833C11.3203 6.45833 11.0417 6.17969 11.0417 5.83333C11.0417 5.48698 11.3203 5.20833 11.6667 5.20833C12.013 5.20833 12.2917 5.48698 12.2917 5.83333C12.2917 6.17969 12.013 6.45833 11.6667 6.45833Z" fill="url(#paint0_linear_206_103)"/>
<defs>
<linearGradient id="paint0_linear_206_103" x1="7.5" y1="0.833332" x2="7.5" y2="12.501" gradientUnits="userSpaceOnUse">
<stop offset="0.21875" stop-color="#64166B"/>
<stop offset="0.510417" stop-color="#5D369D"/>
<stop offset="0.802083" stop-color="#1B58B4"/>
</linearGradient>
</defs>
</svg>
