<svg width="77" height="77" viewBox="0 0 77 77" fill="none" xmlns="http://www.w3.org/2000/svg">
<path d="M7.21875 9.625C3.2334 9.625 0 12.8584 0 16.8438C0 19.1146 1.06777 21.2502 2.8875 22.6187L35.6125 47.1625C37.327 48.4408 39.673 48.4408 41.3875 47.1625L74.1125 22.6187C75.9322 21.2502 77 19.1146 77 16.8438C77 12.8584 73.7666 9.625 69.7812 9.625H7.21875ZM0 26.4688V57.75C0 63.0588 4.31621 67.375 9.625 67.375H67.375C72.6838 67.375 77 63.0588 77 57.75V26.4688L44.275 51.0125C40.8461 53.5842 36.1539 53.5842 32.725 51.0125L0 26.4688Z" fill="white"/>
</svg>
