<svg width="40" height="32" viewBox="0 0 40 32" fill="none" xmlns="http://www.w3.org/2000/svg">
<path d="M11.3438 12.3188L12.15 12.7188C12.5187 12.9062 12.925 13 13.3438 13C14.8125 13 16.0063 11.8062 16.0063 10.3375V9C16.0063 6.79375 14.2125 5 12.0063 5H8C5.79375 5 4 6.79375 4 9V10.3375C4 11.8062 5.19375 13 6.6625 13C7.075 13 7.48125 12.9062 7.85625 12.7188L8.6625 12.3188L9.1875 12.0562L8.44375 11.5625C8.1625 11.375 8 11.0625 8 10.7312V10.5C8 9.66875 8.66875 9 9.5 9H10.5C11.3313 9 12 9.66875 12 10.5V10.7312C12 11.0625 11.8312 11.375 11.5562 11.5625L10.8188 12.0562L11.3438 12.3188ZM10.8062 15.4062L10 15L9.19375 15.4C8.40625 15.7937 7.5375 16 6.6625 16C6.4375 16 6.21875 15.9875 6 15.9625V16C6 18.2062 7.79375 20 10 20H14C15.1063 20 16 20.8937 16 22C16 23.1063 15.1063 24 14 24H24V21V20C24 18.5187 24.8062 17.225 26 16.5375C26.5875 16.2 27.2688 16 28 16V15C28 13.3438 29.3438 12 31 12C31.55 12 32 12.45 32 13V15V16V19C32 19.55 32.45 20 33 20C33.55 20 34 19.55 34 19V12.7688C34 9.75625 32.075 7.08125 29.2125 6.125L28.6812 5.95C28.1812 5.78125 27.8937 5.25625 28.0312 4.74375C28.1688 4.23125 28.675 3.91875 29.1938 4.01875L30.4375 4.26875C36 5.38125 40 10.2625 40 15.9312V16C40 23.7312 33.7312 30 26 30H25.9312H16H15.9625C8.25 30 2 23.75 2 16.0375V16V13.55C1.36875 12.6375 1 11.5312 1 10.3375V9V8.9125C0.41875 8.70625 0 8.15625 0 7.5C0 6.66875 0.66875 6 1.5 6H1.675C2.8 3.6375 5.20625 2 8 2H12C14.7938 2 17.2 3.6375 18.325 6H18.5C19.3313 6 20 6.66875 20 7.5C20 8.15625 19.5813 8.70625 19 8.9125V9V10.3375C19 10.425 19 10.5125 18.9937 10.6062C19.7437 10.2187 20.6 10.0063 21.5 10.0063H22C23.1063 10.0063 24 10.9 24 12.0063C24 13.1125 23.1063 14.0063 22 14.0063H21.5C20.6687 14.0063 20 14.675 20 15.5063V16.0063H23.525C22.575 17.0688 22 18.4688 22 20.0063H20C17.3563 20.0063 15.1125 18.2938 14.3125 15.925C13.9938 15.9813 13.6687 16.0063 13.3375 16.0063C12.4562 16.0063 11.5937 15.8 10.8062 15.4062V15.4062ZM6 10C5.45 10 5 9.55 5 9C5 8.45 5.45 8 6 8C6.55 8 7 8.45 7 9C7 9.55 6.55 10 6 10ZM15 9C15 9.55 14.55 10 14 10C13.45 10 13 9.55 13 9C13 8.45 13.45 8 14 8C14.55 8 15 8.45 15 9Z" fill="url(#paint0_linear_1522_5160)"/>
<defs>
<linearGradient id="paint0_linear_1522_5160" x1="20" y1="2" x2="20" y2="30" gradientUnits="userSpaceOnUse">
<stop stop-color="#060A45"/>
<stop offset="1" stop-color="#571764"/>
</linearGradient>
</defs>
</svg>
