<svg width="77" height="77" viewBox="0 0 77 77" fill="none" xmlns="http://www.w3.org/2000/svg">
<path d="M2.37439 39.1319C-1.0267 41.0719 -0.71067 46.2453 2.91616 47.7492L24.03 56.547V72.0823C24.03 74.8043 26.2272 77 28.9511 77C30.4108 77 31.7953 76.3533 32.7284 75.2254L42.0588 64.0515L60.7046 71.8116C63.5489 72.9996 66.8446 71.1348 67.3111 68.0969L76.9426 5.53491C77.2285 3.7152 76.4309 1.88044 74.9109 0.842756C73.391 -0.194931 71.4045 -0.285165 69.7942 0.632211L2.37439 39.1319V39.1319ZM10.215 42.9669L61.6075 13.6259L28.5598 50.5314L28.7404 50.6818L10.215 42.9669ZM60.6444 63.9763L35.5726 53.5242L67.7927 17.536L60.6444 63.9763Z" fill="white"/>
</svg>
