<svg width="40" height="40" viewBox="0 0 40 40" fill="none" xmlns="http://www.w3.org/2000/svg">
<g clip-path="url(#clip0_1522_5158)">
<path d="M15 8.1875C15 7.46875 14.5469 6.83594 13.9688 6.40625C13.0625 5.72656 12.5 4.78906 12.5 3.75C12.5 1.67969 14.7422 0 17.5 0C20.2578 0 22.5 1.67969 22.5 3.75C22.5 4.78906 21.9375 5.72656 21.0313 6.40625C20.4531 6.83594 20 7.46875 20 8.1875C20 9.1875 20.8125 10 21.8125 10H26.25C28.3203 10 30 11.6797 30 13.75V18.1875C30 19.1875 30.8125 20 31.8125 20C32.5313 20 33.1641 19.5469 33.5938 18.9688C34.2734 18.0625 35.2109 17.5 36.25 17.5C38.3203 17.5 40 19.7422 40 22.5C40 25.2578 38.3203 27.5 36.25 27.5C35.2109 27.5 34.2734 26.9375 33.5938 26.0313C33.1641 25.4531 32.5313 25 31.8125 25C30.8125 25 30 25.8125 30 26.8125V36.25C30 38.3203 28.3203 40 26.25 40H21.8125C20.8125 40 20 39.1875 20 38.1875C20 37.4687 20.4531 36.8359 21.0313 36.4062C21.9375 35.7266 22.5 34.7891 22.5 33.75C22.5 31.6797 20.2578 30 17.5 30C14.7422 30 12.5 31.6797 12.5 33.75C12.5 34.7891 13.0625 35.7266 13.9688 36.4062C14.5469 36.8359 15 37.4687 15 38.1875C15 39.1875 14.1875 40 13.1875 40H3.75C1.67969 40 0 38.3203 0 36.25V26.8125C0 25.8125 0.8125 25 1.8125 25C2.53125 25 3.16406 25.4531 3.59375 26.0313C4.27344 26.9375 5.21094 27.5 6.25 27.5C8.32031 27.5 10 25.2578 10 22.5C10 19.7422 8.32031 17.5 6.25 17.5C5.21094 17.5 4.27344 18.0625 3.59375 18.9688C3.16406 19.5469 2.53125 20 1.8125 20C0.8125 20 0 19.1875 0 18.1875V13.75C0 11.6797 1.67969 10 3.75 10H13.1875C14.1875 10 15 9.1875 15 8.1875Z" fill="url(#paint0_linear_1522_5158)"/>
</g>
<defs>
<linearGradient id="paint0_linear_1522_5158" x1="20" y1="0" x2="20" y2="40" gradientUnits="userSpaceOnUse">
<stop stop-color="#060A45"/>
<stop offset="1" stop-color="#571764"/>
</linearGradient>
<clipPath id="clip0_1522_5158">
<rect width="40" height="40" fill="white"/>
</clipPath>
</defs>
</svg>
