<svg width="40" height="40" viewBox="0 0 40 40" fill="none" xmlns="http://www.w3.org/2000/svg">
<path d="M12.2387 30.0661L9.82476 27.6522C9.16073 26.9882 8.92637 26.0274 9.22323 25.1368C9.45759 24.4415 9.77008 23.5354 10.1451 22.4964H1.87986C1.20802 22.4964 0.583053 22.137 0.247133 21.5511C-0.0887868 20.9652 -0.0809747 20.2465 0.262757 19.6685L4.36411 12.7549C5.37968 11.0441 7.21552 9.99733 9.19979 9.99733H15.6291C15.8166 9.68485 16.0041 9.39581 16.1916 9.11458C22.5897 -0.322197 32.1205 -0.634672 37.8077 0.412123C38.7139 0.576173 39.417 1.28706 39.5888 2.19324C40.6357 7.88812 40.3154 17.4108 30.8862 23.8088C30.6127 23.9963 30.3159 24.1837 30.0034 24.3712V30.8004C30.0034 32.7847 28.9566 34.6283 27.2457 35.636L20.332 39.7372C19.7539 40.081 19.0352 40.0888 18.4493 39.7529C17.8634 39.417 17.504 38.7998 17.504 38.1202V29.7458C16.4025 30.1286 15.4417 30.4411 14.7151 30.6754C13.8402 30.9567 12.8871 30.7145 12.2309 30.0661H12.2387ZM30.0034 13.1221C31.7299 13.1221 33.1282 11.7238 33.1282 9.99733C33.1282 8.2709 31.7299 6.87257 30.0034 6.87257C28.2769 6.87257 26.8786 8.2709 26.8786 9.99733C26.8786 11.7238 28.2769 13.1221 30.0034 13.1221Z" fill="url(#paint0_linear_1521_5155)"/>
<defs>
<linearGradient id="paint0_linear_1521_5155" x1="20" y1="0" x2="20" y2="40" gradientUnits="userSpaceOnUse">
<stop stop-color="#060A45"/>
<stop offset="1" stop-color="#571764"/>
</linearGradient>
</defs>
</svg>
