<svg width="77" height="77" viewBox="0 0 77 77" fill="none" xmlns="http://www.w3.org/2000/svg">
<path d="M60.0059 57.7801C56.6822 52.0051 50.441 48.125 43.3125 48.125H33.6875C26.559 48.125 20.3178 52.0051 16.9941 57.7801C22.2879 63.6754 29.9578 67.375 38.5 67.375C47.0422 67.375 54.7121 63.6604 60.0059 57.7801ZM77 38.5C77 59.7652 59.7652 77 38.5 77C17.2348 77 0 59.7652 0 38.5C0 17.2348 17.2348 0 38.5 0C59.7652 0 77 17.2348 77 38.5ZM38.5 40.9062C44.4855 40.9062 49.3281 36.0637 49.3281 30.0781C49.3281 24.0926 44.4855 19.25 38.5 19.25C32.5145 19.25 27.6719 24.0926 27.6719 30.0781C27.6719 36.0637 32.5145 40.9062 38.5 40.9062Z" fill="white"/>
</svg>
