<svg width="35" height="35" viewBox="0 0 35 35" fill="none" xmlns="http://www.w3.org/2000/svg">
<g clip-path="url(#clip0_1484_2064)">
<circle cx="17.5" cy="17.5" r="16" stroke="white" stroke-width="3"/>
<line x1="8.25" y1="14.5" x2="8.25" y2="19.25" stroke="white" stroke-width="4" stroke-linecap="round"/>
<line x1="27" y1="14.5" x2="27" y2="19.25" stroke="white" stroke-width="4" stroke-linecap="round"/>
<mask id="path-4-inside-1_1484_2064" fill="white">
<path d="M20.5236 17.5C21.6151 17.5 22.5329 18.424 22.0718 19.4134V19.4134C21.7891 20.02 21.3748 20.5712 20.8525 21.0355C20.3301 21.4998 19.7101 21.8681 19.0276 22.1194C18.3451 22.3707 17.6137 22.5 16.875 22.5C16.1363 22.5 15.4049 22.3707 14.7224 22.1194C14.0399 21.8681 13.4199 21.4998 12.8975 21.0355C12.3752 20.5712 11.9609 20.02 11.6782 19.4134V19.4134C11.2171 18.424 12.1349 17.5 13.2264 17.5L16.875 17.5H20.5236Z"/>
</mask>
<path d="M20.5236 17.5C21.6151 17.5 22.5329 18.424 22.0718 19.4134V19.4134C21.7891 20.02 21.3748 20.5712 20.8525 21.0355C20.3301 21.4998 19.7101 21.8681 19.0276 22.1194C18.3451 22.3707 17.6137 22.5 16.875 22.5C16.1363 22.5 15.4049 22.3707 14.7224 22.1194C14.0399 21.8681 13.4199 21.4998 12.8975 21.0355C12.3752 20.5712 11.9609 20.02 11.6782 19.4134V19.4134C11.2171 18.424 12.1349 17.5 13.2264 17.5L16.875 17.5H20.5236Z" fill="white" stroke="white" stroke-width="4" mask="url(#path-4-inside-1_1484_2064)"/>
</g>
<defs>
<clipPath id="clip0_1484_2064">
<rect width="35" height="35" fill="white"/>
</clipPath>
</defs>
</svg>
