<svg width="32" height="20" viewBox="0 0 32 20" fill="none" xmlns="http://www.w3.org/2000/svg">
<path d="M16.1218 3.77222L16.1875 17.553" stroke="white" stroke-width="1.41027" stroke-linecap="round"/>
<path d="M1.70753 17.553L1.57986 11.0502L1.57983 3.95063" stroke="white" stroke-width="1.41" stroke-linecap="round"/>
<path d="M30.6675 3.51185V10.4473V17.553" stroke="white" stroke-width="1.41" stroke-linecap="round"/>
<path d="M1.34178 17.992C1.31969 17.9964 1.29689 17.9996 1.27346 18.0014C1.27241 17.9982 1.27136 17.995 1.27034 17.9918L1.34178 17.992ZM1.82814 17.0603C1.97261 16.9205 2.15441 16.7098 2.39272 16.3757C2.59726 16.1916 2.89026 16.0976 3.3284 16.1087C3.79988 16.1207 4.3634 16.2538 5.00055 16.4502C5.315 16.5471 5.63552 16.6555 5.96315 16.7665L5.97904 16.7718C6.29869 16.8801 6.62553 16.9908 6.94532 17.0896C7.58437 17.287 8.25523 17.4571 8.86224 17.4588C9.42821 17.4605 9.84427 17.3877 10.1963 17.2592C10.4827 17.1547 10.7149 17.0145 10.8986 16.9037C10.9315 16.8839 10.9629 16.8649 10.9927 16.8473C11.1935 16.7288 11.3916 16.6245 11.6916 16.544C11.9995 16.4614 12.4389 16.3979 13.1159 16.3979C13.2399 16.3979 13.5542 16.4456 13.967 16.5647C14.3665 16.68 14.8027 16.8461 15.1663 17.0489C15.5483 17.2619 15.7653 17.4685 15.8442 17.6255C15.8763 17.6895 15.8807 17.735 15.8744 17.7763C15.871 17.7988 15.8626 17.8316 15.8419 17.8747C15.1783 17.9603 14.735 17.924 14.32 17.8766C14.2695 17.8708 14.2185 17.8647 14.167 17.8585C13.728 17.806 13.2457 17.7484 12.5968 17.836C11.8908 17.9313 11.3074 18.3026 10.8315 18.6054C10.7599 18.6509 10.6908 18.6949 10.624 18.7362C10.0814 19.0717 9.57164 19.3304 8.86399 19.3304C8.53034 19.3304 8.0528 19.2177 7.45235 19.0133C6.91867 18.8316 6.34129 18.597 5.74998 18.3567C5.68885 18.3319 5.62757 18.307 5.56617 18.282C4.92239 18.0208 4.26262 17.7573 3.67689 17.5816C3.12293 17.4153 2.50504 17.284 2.00115 17.4096L1.85796 17.4453C1.85051 17.2879 1.83986 17.1622 1.82814 17.0603ZM1.77936 16.7534C1.77938 16.7534 1.77971 16.7551 1.78019 16.7582C1.77957 16.7549 1.77933 16.7534 1.77936 16.7534Z" stroke="white" stroke-width="1.2"/>
<path d="M30.4226 17.5543C30.4604 17.5755 30.4935 17.5921 30.5222 17.6052C30.524 17.5526 30.5258 17.5039 30.5275 17.4587C30.5293 17.4102 30.5309 17.3658 30.5323 17.3252C30.5369 17.1871 30.5361 17.1154 30.5349 17.0807C30.523 17.0687 30.5062 17.0523 30.4832 17.031C30.4624 17.0117 30.4382 16.9897 30.4108 16.9648C30.2976 16.8618 30.1293 16.7088 29.9136 16.4858C29.7184 16.2838 29.4341 16.1792 28.9916 16.1882C28.5378 16.1973 27.9924 16.3261 27.372 16.5187C27.066 16.6136 26.7541 16.72 26.4347 16.8291L26.4191 16.8345C26.1077 16.9408 25.7889 17.0498 25.4769 17.1468C24.8541 17.3407 24.1968 17.5082 23.6012 17.5064C23.0476 17.5048 22.6395 17.4291 22.2941 17.2972C22.0137 17.19 21.7865 17.0472 21.6087 16.9354C21.5769 16.9154 21.5467 16.8964 21.518 16.8788C21.3241 16.7596 21.1341 16.6554 20.8464 16.5741C20.5506 16.4907 20.1266 16.4249 19.4703 16.421C19.3506 16.4203 19.0278 16.4664 18.5963 16.5836C18.1792 16.697 17.717 16.8615 17.3255 17.0645C16.9147 17.2774 16.6667 17.4893 16.5695 17.657C16.5291 17.7266 16.5241 17.7719 16.5275 17.8061C16.5291 17.8222 16.5336 17.8463 16.5464 17.8788C17.1936 17.9657 17.6835 17.934 18.155 17.8892C18.2125 17.8838 18.2705 17.878 18.3291 17.8721C18.8137 17.8239 19.3421 17.7712 19.9715 17.8624C20.6645 17.9628 21.235 18.3411 21.6954 18.6462C21.7645 18.6921 21.8312 18.7363 21.8955 18.7777C22.4212 19.1162 22.9099 19.3739 23.5888 19.3779C23.9075 19.3798 24.3684 19.2715 24.9533 19.0706C25.4726 18.8923 26.0347 18.6613 26.6114 18.4243C26.6709 18.3998 26.7306 18.3753 26.7905 18.3508C27.4179 18.0933 28.0622 17.8331 28.6344 17.6603C29.1737 17.4974 29.7834 17.3667 30.2821 17.4977L30.356 17.5171L30.4226 17.5543Z" stroke="white" stroke-width="1.2"/>
<mask id="path-6-inside-1_1346_5005" fill="white">
<path d="M1.00254 4.5903C1.00851 2.5441 1.13396 3.02093 2.58506 1.57827C4.03615 0.135615 6.77493 0.873125 8.82112 0.879093C10.8673 0.885061 12.9896 -0.311612 14.4323 1.13949C15.8749 2.59059 16.6322 3.42896 16.6262 5.47515L15.6756 5.47514C15.6809 3.65275 15.2784 3.74823 13.9935 2.45585C12.7086 1.16346 10.5505 2.02238 8.72807 2.01706C6.90568 2.01174 4.48891 1.55029 3.19653 2.83515C1.90415 4.12002 2.06712 3.65276 2.06181 5.47515L1.00254 4.5903Z"/>
</mask>
<path d="M1.00254 4.5903L-0.407451 4.58619L-0.409382 5.24808L0.0985971 5.67242L1.00254 4.5903ZM16.6262 5.47515L16.6262 6.88515L18.0321 6.88516L18.0362 5.47926L16.6262 5.47515ZM15.6756 5.47514L14.2656 5.47103L14.2614 6.88513L15.6755 6.88514L15.6756 5.47514ZM8.72807 2.01706L8.73218 0.607066L8.72807 2.01706ZM2.06181 5.47515L1.15786 6.55727L3.46304 8.4829L3.4718 5.47926L2.06181 5.47515ZM2.41254 4.59441C2.41406 4.0721 2.42451 3.80666 2.44599 3.64494C2.46195 3.52481 2.47025 3.57305 2.42126 3.64577C2.41006 3.66239 2.42014 3.6377 2.65831 3.42795C2.86744 3.24378 3.18067 2.97438 3.57916 2.5782L1.59095 0.578349C1.26389 0.9035 1.01728 1.11549 0.794579 1.31161C0.600926 1.48215 0.307183 1.73663 0.0824944 2.07015C-0.179996 2.45977 -0.294868 2.86263 -0.34946 3.27367C-0.398526 3.64311 -0.405991 4.08539 -0.407451 4.58619L2.41254 4.59441ZM3.57916 2.5782C3.88693 2.27222 4.4365 2.091 5.47391 2.09544C5.96994 2.09755 6.49431 2.13989 7.07004 2.18804C7.62175 2.23419 8.23732 2.2874 8.81701 2.28909L8.82523 -0.530901C8.38182 -0.532195 7.88772 -0.573413 7.30508 -0.622146C6.74645 -0.66887 6.11177 -0.721866 5.48595 -0.724539C4.27964 -0.729691 2.73428 -0.558331 1.59095 0.578349L3.57916 2.5782ZM8.81701 2.28909C9.45668 2.29095 10.0724 2.19923 10.6001 2.10733C11.1701 2.00808 11.5872 1.91984 12.0225 1.86714C12.8499 1.76698 13.1778 1.87759 13.4324 2.1336L15.4322 0.145379C14.2441 -1.04971 12.7896 -1.06631 11.6836 -0.932413C11.1522 -0.868076 10.5649 -0.74896 10.1164 -0.670862C9.62557 -0.585403 9.20866 -0.529783 8.82523 -0.530901L8.81701 2.28909ZM13.4324 2.1336C14.1754 2.88103 14.5868 3.32534 14.8477 3.78274C15.0726 4.17703 15.2186 4.64595 15.2162 5.47104L18.0362 5.47926C18.0398 4.25816 17.8102 3.28479 17.2973 2.38557C16.8204 1.54947 16.1318 0.849047 15.4322 0.145379L13.4324 2.1336ZM16.6262 4.06515L15.6756 4.06514L15.6755 6.88514L16.6262 6.88515L16.6262 4.06515ZM17.0855 5.47926C17.0884 4.49607 16.9933 3.68719 16.4664 2.94821C16.2418 2.63313 15.9709 2.37903 15.7548 2.17984C15.5184 1.96192 15.2864 1.75643 14.9934 1.46174L12.9936 3.44996C13.343 3.80145 13.6432 4.06867 13.8435 4.25329C14.064 4.45663 14.1343 4.53488 14.1703 4.58528C14.1815 4.601 14.1973 4.61946 14.2167 4.71044C14.2429 4.83338 14.2668 5.05307 14.2656 5.47103L17.0855 5.47926ZM14.9934 1.46174C13.9114 0.373337 12.5221 0.287234 11.4827 0.346056C10.958 0.375749 10.4134 0.45108 9.96477 0.506919C9.48663 0.566434 9.08923 0.608108 8.73218 0.607066L8.72395 3.42705C9.2781 3.42867 9.83387 3.36497 10.3131 3.30532C10.8218 3.242 11.2388 3.18437 11.642 3.16155C12.4585 3.11534 12.7908 3.24597 12.9936 3.44996L14.9934 1.46174ZM8.73218 0.607066C8.3179 0.605858 7.8747 0.578817 7.34369 0.553554C6.83576 0.529388 6.26687 0.508286 5.70034 0.533705C4.60648 0.582786 3.23086 0.812768 2.20242 1.83523L4.19064 3.83508C4.45458 3.57267 4.93353 3.39095 5.82675 3.35087C6.25375 3.33171 6.71154 3.34667 7.20968 3.37037C7.68475 3.39297 8.22704 3.42561 8.72395 3.42705L8.73218 0.607066ZM2.20242 1.83523C2.05094 1.98583 1.92015 2.1114 1.80368 2.22251C1.69263 2.32844 1.57762 2.43722 1.48132 2.53284C1.29976 2.71309 1.03416 2.98713 0.859384 3.37792C0.680132 3.77871 0.656757 4.16376 0.650026 4.44019C0.64416 4.68109 0.652921 5.09094 0.651812 5.47104L3.4718 5.47926C3.47335 4.94817 3.46373 4.73303 3.46919 4.50884C3.47378 4.32018 3.49144 4.40004 3.43365 4.52924C3.38034 4.64844 3.31665 4.68447 3.46819 4.53402C3.53843 4.46428 3.62276 4.38454 3.75019 4.26297C3.8722 4.14658 4.01902 4.00569 4.19064 3.83508L2.20242 1.83523ZM2.96575 4.39303L1.90649 3.50818L0.0985971 5.67242L1.15786 6.55727L2.96575 4.39303Z" fill="white" mask="url(#path-6-inside-1_1346_5005)"/>
<mask id="path-8-inside-2_1346_5005" fill="white">
<path d="M31.1541 4.24819C31.16 2.20199 31.0329 2.67809 29.6025 1.22702C28.1722 -0.22404 25.4525 0.497549 23.4237 0.491631C21.3949 0.485713 19.2976 -0.723267 17.8589 0.719428C16.4201 2.16212 15.6644 2.99608 15.6585 5.04227L16.601 5.04779C16.6063 3.2254 17.0048 3.32321 18.2863 2.03831C19.5677 0.753417 21.7025 1.62485 23.5093 1.63012C25.3162 1.63539 27.7151 1.18798 28.989 2.48033C30.2629 3.77268 30.104 3.30448 30.0987 5.12687L31.1541 4.24819Z"/>
</mask>
<path d="M31.1541 4.24819L32.564 4.2523L32.5621 4.91058L32.0562 5.33178L31.1541 4.24819ZM15.6585 5.04227L15.6502 6.45225L14.2444 6.44403L14.2485 5.03816L15.6585 5.04227ZM16.601 5.04779L18.011 5.0519L18.0069 6.46604L16.5928 6.45776L16.601 5.04779ZM23.5093 1.63012L23.5135 0.220126L23.5093 1.63012ZM30.0987 5.12687L31.0009 6.21047L28.6799 8.14288L28.6887 5.12276L30.0987 5.12687ZM29.7441 4.24408C29.7456 3.72185 29.7368 3.45561 29.7163 3.29291C29.701 3.17121 29.692 3.21824 29.7399 3.29077C29.751 3.30762 29.7415 3.28323 29.5067 3.07223C29.3005 2.88687 28.9913 2.6155 28.5984 2.21685L30.6067 0.237196C30.9289 0.564075 31.172 0.777344 31.3917 0.974775C31.5829 1.14656 31.873 1.4031 32.0939 1.73809C32.3516 2.12875 32.4627 2.53112 32.5143 2.94099C32.5607 3.30985 32.5655 3.75143 32.564 4.2523L29.7441 4.24408ZM28.5984 2.21685C28.2985 1.9126 27.761 1.72899 26.7353 1.7274C26.2446 1.72663 25.7254 1.76584 25.1542 1.81066C24.6072 1.85358 23.9955 1.9033 23.4196 1.90163L23.4278 -0.918363C23.8663 -0.917084 24.3554 -0.955335 24.9336 -1.0007C25.4876 -1.04417 26.1181 -1.09357 26.7397 -1.0926C27.9387 -1.09074 29.4763 -0.909619 30.6067 0.237196L28.5984 2.21685ZM23.4196 1.90163C22.7832 1.89977 22.1716 1.80415 21.6486 1.70914C21.083 1.6064 20.6714 1.516 20.2409 1.46088C19.4251 1.3564 19.107 1.46468 18.8572 1.7151L16.8605 -0.27624C18.0495 -1.46852 19.4994 -1.4771 20.5991 -1.33628C21.1264 -1.26876 21.7094 -1.14597 22.1527 -1.06545C22.6385 -0.977187 23.0498 -0.919466 23.4278 -0.918363L23.4196 1.90163ZM18.8572 1.7151C18.1163 2.45802 17.706 2.89975 17.4446 3.35575C17.2189 3.74961 17.0709 4.21933 17.0685 5.04639L14.2485 5.03816C14.252 3.81902 14.4848 2.84867 14.9981 1.95332C15.4757 1.12012 16.1626 0.423529 16.8605 -0.27624L18.8572 1.7151ZM15.6667 3.6323L16.6093 3.63781L16.5928 6.45776L15.6502 6.45225L15.6667 3.6323ZM15.191 5.04368C15.1939 4.06182 15.2926 3.25576 15.8185 2.5209C16.0432 2.20695 16.3135 1.95417 16.5291 1.75611C16.7648 1.53949 16.9958 1.3355 17.2879 1.04265L19.2846 3.03398C18.936 3.38358 18.6367 3.64919 18.4371 3.83257C18.2174 4.03449 18.1475 4.11207 18.1117 4.16208C18.1005 4.17781 18.0842 4.1969 18.0641 4.28919C18.0372 4.41309 18.0122 4.63359 18.011 5.0519L15.191 5.04368ZM17.2879 1.04265C18.3708 -0.0432282 19.7557 -0.121885 20.7894 -0.0568097C21.3104 -0.0240049 21.851 0.0546444 22.295 0.113022C22.7687 0.175313 23.1611 0.219098 23.5135 0.220126L23.5052 3.04011C22.9541 3.03851 22.4021 2.97139 21.9273 2.90895C21.4228 2.84261 21.0108 2.78272 20.6122 2.75762C19.8063 2.70688 19.4831 2.83496 19.2846 3.03398L17.2879 1.04265ZM23.5135 0.220126C23.9235 0.221322 24.3622 0.196899 24.8893 0.1747C25.3932 0.153481 25.9583 0.135637 26.521 0.164408C27.6083 0.219998 28.9764 0.459027 29.9931 1.4905L27.9848 3.47015C27.7277 3.20928 27.2593 3.02584 26.377 2.98073C25.955 2.95915 25.502 2.9714 25.008 2.9922C24.5373 3.01202 23.9986 3.04155 23.5052 3.04011L23.5135 0.220126ZM29.9931 1.4905C30.1424 1.64194 30.2713 1.76823 30.3861 1.88C30.4956 1.98654 30.6091 2.09606 30.704 2.19229C30.8834 2.37405 31.1451 2.64967 31.3158 3.04077C31.4905 3.44107 31.5114 3.82454 31.5164 4.10043C31.5209 4.34128 31.5098 4.75024 31.5087 5.13099L28.6887 5.12276C28.6902 4.59231 28.701 4.3764 28.6969 4.15211C28.6934 3.96285 28.6754 4.0409 28.7313 4.1689C28.7831 4.28771 28.846 4.32416 28.697 4.17329C28.6279 4.1032 28.5448 4.02303 28.4191 3.90069C28.2988 3.78358 28.154 3.64181 27.9848 3.47015L29.9931 1.4905ZM29.1965 4.04328L30.2519 3.1646L32.0562 5.33178L31.0009 6.21047L29.1965 4.04328Z" fill="white" mask="url(#path-8-inside-2_1346_5005)"/>
</svg>
