<svg width="24" height="22" viewBox="0 0 24 22" fill="none" xmlns="http://www.w3.org/2000/svg">
<path d="M22.6863 6.54244C22.6863 3.54819 20.986 1.12087 17.8671 1.12087C16.2951 1.12087 11.2408 2.49256 14.2528 6.54244C16.0599 8.97237 12.4456 8.34964 12.4456 13.47C12.4456 16.4764 10.1058 15.463 9.05865 12.1997C8.88627 11.6625 8.54926 11.1877 8.29613 10.6835C7.27057 8.64062 10.8154 6.28001 10.6383 5.33765C10.0952 2.44779 8.56672 0.87153 7.12986 1.0082C6.80294 1.0393 6.4783 1.11416 6.15105 1.14152C3.26453 1.38285 1 3.70877 1 6.54244C1 13.4118 7.7611 18.4473 10.6056 20.2618C11.3679 20.7481 12.3184 20.7481 13.0807 20.2618C15.9252 18.4473 22.6863 13.4118 22.6863 6.54244Z" stroke="white" stroke-width="1.6" stroke-linecap="round" stroke-linejoin="round"/>
</svg>
