<svg width="32" height="26" viewBox="0 0 32 26" fill="none" xmlns="http://www.w3.org/2000/svg">
<path d="M10.813 7.41804C10.8338 7.36301 10.8613 7.33643 10.8856 7.32058C10.9142 7.30197 10.9539 7.28891 11 7.28891C11.0461 7.28891 11.0858 7.30197 11.1144 7.32058C11.1387 7.33643 11.1662 7.36302 11.187 7.41805L13.0437 12.3182L13.7918 12.0347L13.0437 12.3182C13.2309 12.812 13.6254 13.1988 14.1228 13.376L19.0876 15.1449C19.145 15.1654 19.1721 15.1931 19.188 15.217C19.2069 15.2455 19.2205 15.286 19.2205 15.3333C19.2205 15.3807 19.2069 15.4211 19.188 15.4497C19.1721 15.4736 19.145 15.5013 19.0876 15.5217L14.1228 17.2907C13.6254 17.4679 13.2309 17.8546 13.0437 18.3485L11.187 23.2486C11.1662 23.3037 11.1387 23.3302 11.1144 23.3461C11.0858 23.3647 11.0461 23.3778 11 23.3778C10.9539 23.3778 10.9142 23.3647 10.8856 23.3461C10.8613 23.3302 10.8338 23.3036 10.813 23.2486L8.95625 18.3485C8.76914 17.8546 8.37461 17.4679 7.87716 17.2907L2.91236 15.5217C2.85496 15.5013 2.82795 15.4736 2.81204 15.4497C2.7931 15.4211 2.77949 15.3807 2.77949 15.3333C2.77949 15.286 2.7931 15.2455 2.81204 15.217C2.82795 15.1931 2.85496 15.1654 2.91237 15.1449L7.87717 13.376C8.37461 13.1988 8.76914 12.812 8.95625 12.3182L10.813 7.41804Z" stroke="white" stroke-width="1.6"/>
<path d="M23.7632 3.03314C23.84 2.80687 24.16 2.80687 24.2368 3.03314L25.1075 5.60043C25.2859 6.12662 25.7037 6.5368 26.233 6.70562L28.7847 7.5194C29.0168 7.5934 29.0168 7.92175 28.7847 7.99576L26.233 8.80953C25.7037 8.97835 25.2859 9.38853 25.1075 9.91472L24.2368 12.482C24.16 12.7083 23.84 12.7083 23.7632 12.482L22.8925 9.91472C22.7141 9.38853 22.2963 8.97836 21.767 8.80953L19.2153 7.99576C18.9832 7.92175 18.9832 7.5934 19.2153 7.5194L21.767 6.70562C22.2963 6.5368 22.7141 6.12662 22.8925 5.60043L23.7632 3.03314Z" stroke="white" stroke-width="1.5"/>
</svg>
