<svg width="55" height="36" viewBox="0 0 55 36" fill="none" xmlns="http://www.w3.org/2000/svg">
<path d="M8.31694 26.0258L52.5923 2M8.31694 26.0258L7.68632 25.0705M8.31694 26.0258L13.4956 28.6471M8.31694 26.0258V26.0258C8.20741 25.7228 7.75714 25.8125 7.77202 26.1343L7.97733 30.5733C8.01157 31.3137 8.83997 31.734 9.45765 31.3244L13.4956 28.6471M52.5923 2L25.7587 33.151C25.1586 33.8477 24.1607 34.0454 23.3402 33.6301L13.4956 28.6471M52.5923 2L3.51565 13.8917C2.16926 14.218 1.55431 15.7811 2.3175 16.9373L7.68632 25.0705M5.79447 22.2045L7.68632 25.0705" stroke="white" stroke-width="3" stroke-linejoin="round"/>
</svg>
