<svg width="24" height="28" viewBox="0 0 24 28" fill="none" xmlns="http://www.w3.org/2000/svg">
<mask id="path-1-inside-1_1346_5006" fill="white">
<path d="M22 14C22 12.1615 21.7413 10.341 21.2388 8.64243C20.7362 6.94387 19.9997 5.40053 19.0711 4.1005C18.1425 2.80048 17.0401 1.76925 15.8268 1.06569C14.6136 0.362121 13.3132 -8.03637e-08 12 0C10.6868 8.03637e-08 9.38642 0.362121 8.17317 1.06569C6.95991 1.76925 5.85752 2.80049 4.92893 4.10051C4.00035 5.40053 3.26375 6.94387 2.7612 8.64243C2.25866 10.341 2 12.1615 2 14H3.1597C3.1597 12.3747 3.38836 10.7653 3.83262 9.26375C4.27689 7.76217 4.92806 6.3978 5.74896 5.24855C6.56986 4.09929 7.54441 3.18765 8.61696 2.56567C9.68952 1.9437 10.8391 1.62357 12 1.62357C13.1609 1.62357 14.3105 1.9437 15.383 2.56567C16.4556 3.18765 17.4301 4.09929 18.251 5.24855C19.0719 6.3978 19.7231 7.76217 20.1674 9.26375C20.6116 10.7653 20.8403 12.3747 20.8403 14H22Z"/>
</mask>
<path d="M22 14C22 12.1615 21.7413 10.341 21.2388 8.64243C20.7362 6.94387 19.9997 5.40053 19.0711 4.1005C18.1425 2.80048 17.0401 1.76925 15.8268 1.06569C14.6136 0.362121 13.3132 -8.03637e-08 12 0C10.6868 8.03637e-08 9.38642 0.362121 8.17317 1.06569C6.95991 1.76925 5.85752 2.80049 4.92893 4.10051C4.00035 5.40053 3.26375 6.94387 2.7612 8.64243C2.25866 10.341 2 12.1615 2 14H3.1597C3.1597 12.3747 3.38836 10.7653 3.83262 9.26375C4.27689 7.76217 4.92806 6.3978 5.74896 5.24855C6.56986 4.09929 7.54441 3.18765 8.61696 2.56567C9.68952 1.9437 10.8391 1.62357 12 1.62357C13.1609 1.62357 14.3105 1.9437 15.383 2.56567C16.4556 3.18765 17.4301 4.09929 18.251 5.24855C19.0719 6.3978 19.7231 7.76217 20.1674 9.26375C20.6116 10.7653 20.8403 12.3747 20.8403 14H22Z" stroke="white" stroke-width="2.95238" mask="url(#path-1-inside-1_1346_5006)"/>
<rect x="0.738095" y="13.4048" width="6.52381" height="7.19048" rx="2.21429" stroke="white" stroke-width="1.47619"/>
<rect x="16.7381" y="13.4048" width="6.52381" height="7.19048" rx="2.21429" stroke="white" stroke-width="1.47619"/>
</svg>
