<svg width="190" height="375" viewBox="0 0 190 375" fill="none" xmlns="http://www.w3.org/2000/svg">
<path d="M157 2C162.003 18.5045 168.144 35.3644 167.945 52.8889C167.647 79.0926 146.444 84.9221 124.667 90.9444C100.189 97.7136 74.7531 102.329 52.2223 114.778C25.7146 129.424 5.88944 153.051 2.55561 183.889C0.396326 203.862 4.86326 225.863 15.8334 242.778C26.4883 259.207 46.1074 270.143 63.1112 255.278C72.4597 247.105 76.1192 234.921 76.2223 222.889C76.2502 219.633 75.523 206.555 71.0001 204.444C64.0785 201.214 55.0012 227.186 54.2778 230.833C50.446 250.152 53.0836 274.27 72.1112 284.778C88.566 293.865 108.479 295.925 126.611 299C144.094 301.965 179.005 302.842 186.722 323.611C190.869 334.77 186.554 349.568 180 358.889C173.096 368.708 164.472 370.382 154 373" stroke="black" stroke-width="3" stroke-linecap="round" stroke-dasharray="6 6"/>
</svg>
